<?xml version="1.0" encoding="utf-8"?>
<!-- Generator: Adobe Illustrator 16.0.4, SVG Export Plug-In . SVG Version: 6.00 Build 0)  -->
<!DOCTYPE svg PUBLIC "-//W3C//DTD SVG 1.1//EN" "http://www.w3.org/Graphics/SVG/1.1/DTD/svg11.dtd">
<svg version="1.1" xmlns="http://www.w3.org/2000/svg" xmlns:xlink="http://www.w3.org/1999/xlink" x="0px" y="0px" width="372px"
	 height="216.641px" viewBox="0 0 372 216.641" enable-background="new 0 0 372 216.641" xml:space="preserve">
<g id="Layer_4">
	<path fill="none" stroke="#878787" stroke-miterlimit="10" d="M243.66,54.104c0,0.783-0.635,1.417-1.417,1.417h-26.494
		c-0.782,0-1.417-0.635-1.417-1.417V27.612c0-0.783,0.635-1.417,1.417-1.417h26.494c0.782,0,1.417,0.635,1.417,1.417V54.104z"/>
	<path fill="none" stroke="#878787" stroke-miterlimit="10" d="M278.217,54.105c0,0.782-0.635,1.417-1.417,1.417h-26.494
		c-0.782,0-1.417-0.635-1.417-1.417V27.612c0-0.783,0.635-1.417,1.417-1.417H276.8c0.782,0,1.417,0.635,1.417,1.417V54.105z"/>
	<path fill="none" stroke="#878787" stroke-miterlimit="10" d="M312.771,54.105c0,0.782-0.635,1.417-1.417,1.417H284.86
		c-0.782,0-1.417-0.635-1.417-1.417V27.613c0-0.783,0.635-1.417,1.417-1.417h26.494c0.782,0,1.417,0.635,1.417,1.417V54.105z"/>
	<path fill="none" stroke="#878787" stroke-miterlimit="10" d="M347.328,54.105c0,0.782-0.635,1.417-1.417,1.417h-26.494
		c-0.782,0-1.417-0.635-1.417-1.417V27.613c0-0.783,0.635-1.417,1.417-1.417h26.494c0.782,0,1.417,0.635,1.417,1.417V54.105z"/>
	<path fill="#FFFFFF" stroke="#E30613" stroke-miterlimit="10" d="M243.66,87.973c0,0.782-0.635,1.417-1.417,1.417h-26.494
		c-0.782,0-1.417-0.635-1.417-1.417V61.48c0-0.783,0.635-1.417,1.417-1.417h26.494c0.782,0,1.417,0.635,1.417,1.417V87.973z"/>
	<path fill="#FFFFFF" stroke="#CCAC00" stroke-miterlimit="10" d="M278.217,87.974c0,0.781-0.635,1.416-1.417,1.416h-26.494
		c-0.782,0-1.417-0.635-1.417-1.416V61.48c0-0.783,0.635-1.417,1.417-1.417H276.8c0.782,0,1.417,0.635,1.417,1.417V87.974z"/>
	<path fill="#FFFFFF" stroke="#E30613" stroke-miterlimit="10" d="M312.771,87.974c0,0.782-0.635,1.417-1.417,1.417H284.86
		c-0.782,0-1.417-0.635-1.417-1.417V61.481c0-0.783,0.635-1.417,1.417-1.417h26.494c0.782,0,1.417,0.635,1.417,1.417V87.974z"/>
	<path fill="none" stroke="#878787" stroke-miterlimit="10" d="M347.328,87.974c0,0.782-0.635,1.417-1.417,1.417h-26.494
		c-0.782,0-1.417-0.635-1.417-1.417V61.481c0-0.783,0.635-1.417,1.417-1.417h26.494c0.782,0,1.417,0.635,1.417,1.417V87.974z"/>
	<path fill="#FFFFFF" stroke="#E30613" stroke-miterlimit="10" d="M243.661,121.84c0,0.782-0.635,1.417-1.417,1.417H215.75
		c-0.782,0-1.417-0.635-1.417-1.417V95.348c0-0.783,0.635-1.417,1.417-1.417h26.494c0.782,0,1.417,0.635,1.417,1.417V121.84z"/>
	<path fill="#FFFFFF" stroke="#E30613" stroke-miterlimit="10" d="M278.218,121.841c0,0.781-0.635,1.416-1.417,1.416h-26.494
		c-0.782,0-1.417-0.635-1.417-1.416V95.348c0-0.783,0.635-1.417,1.417-1.417h26.494c0.782,0,1.417,0.635,1.417,1.417V121.841z"/>
	<path fill="#FFFFFF" stroke="#E30613" stroke-miterlimit="10" d="M312.772,121.841c0,0.782-0.635,1.417-1.417,1.417h-26.494
		c-0.782,0-1.417-0.635-1.417-1.417V95.349c0-0.783,0.635-1.417,1.417-1.417h26.494c0.782,0,1.417,0.635,1.417,1.417V121.841z"/>
	<path fill="none" stroke="#878787" stroke-miterlimit="10" d="M347.329,121.841c0,0.782-0.635,1.417-1.417,1.417h-26.494
		c-0.782,0-1.417-0.635-1.417-1.417V95.349c0-0.783,0.635-1.417,1.417-1.417h26.494c0.782,0,1.417,0.635,1.417,1.417V121.841z"/>
	<path fill="#FFFFFF" stroke="#1D71B8" stroke-miterlimit="10" d="M243.66,155.708c0,0.781-0.635,1.416-1.417,1.416h-26.494
		c-0.782,0-1.417-0.635-1.417-1.416v-26.492c0-0.783,0.635-1.418,1.417-1.418h26.494c0.782,0,1.417,0.635,1.417,1.418V155.708z"/>
	<path fill="#FFFFFF" stroke="#1D71B8" stroke-miterlimit="10" d="M278.217,155.708c0,0.781-0.635,1.416-1.417,1.416h-26.494
		c-0.782,0-1.417-0.635-1.417-1.416v-26.492c0-0.783,0.635-1.418,1.417-1.418H276.8c0.782,0,1.417,0.635,1.417,1.418V155.708z"/>
	<path fill="#FFFFFF" stroke="#1D71B8" stroke-miterlimit="10" d="M312.771,155.708c0,0.783-0.635,1.418-1.417,1.418H284.86
		c-0.782,0-1.417-0.635-1.417-1.418v-26.492c0-0.783,0.635-1.418,1.417-1.418h26.494c0.782,0,1.417,0.635,1.417,1.418V155.708z"/>
	<path fill="none" stroke="#878787" stroke-miterlimit="10" d="M347.328,189.576c0,0.783-0.635,1.418-1.417,1.418h-26.494
		c-0.782,0-1.417-0.635-1.417-1.418v-60.36c0-0.783,0.635-1.418,1.417-1.418h26.494c0.782,0,1.417,0.635,1.417,1.418V189.576z"/>
	<path fill="none" stroke="#C6C6C6" stroke-miterlimit="10" d="M129.557,189.578c0,0.781-0.635,1.416-1.417,1.416h-26.494
		c-0.782,0-1.417-0.635-1.417-1.416v-26.493c0-0.782,0.635-1.417,1.417-1.417h26.494c0.782,0,1.417,0.635,1.417,1.417V189.578z"/>
	<path fill="none" stroke="#C6C6C6" stroke-miterlimit="10" d="M164.111,189.578c0,0.782-0.635,1.417-1.417,1.417H136.2
		c-0.782,0-1.417-0.635-1.417-1.417v-26.492c0-0.783,0.635-1.418,1.417-1.418h26.494c0.782,0,1.417,0.635,1.417,1.418V189.578z"/>
	<path fill="none" stroke="#C6C6C6" stroke-miterlimit="10" d="M198.668,189.578c0,0.782-0.635,1.417-1.417,1.417h-26.494
		c-0.782,0-1.417-0.635-1.417-1.417v-26.492c0-0.783,0.635-1.418,1.417-1.418h26.494c0.782,0,1.417,0.635,1.417,1.418V189.578z"/>
	<path fill="none" stroke="#C6C6C6" stroke-miterlimit="10" d="M129.554,87.974c0,0.781-0.635,1.416-1.417,1.416h-26.494
		c-0.782,0-1.417-0.635-1.417-1.416V61.48c0-0.783,0.635-1.417,1.417-1.417h26.494c0.782,0,1.417,0.635,1.417,1.417V87.974z"/>
	<path fill="none" stroke="#C6C6C6" stroke-miterlimit="10" d="M164.108,87.974c0,0.782-0.635,1.417-1.417,1.417h-26.494
		c-0.782,0-1.417-0.635-1.417-1.417V61.481c0-0.783,0.635-1.417,1.417-1.417h26.494c0.782,0,1.417,0.635,1.417,1.417V87.974z"/>
	<path fill="none" stroke="#C6C6C6" stroke-miterlimit="10" d="M198.665,87.974c0,0.782-0.635,1.417-1.417,1.417h-26.494
		c-0.782,0-1.417-0.635-1.417-1.417V61.481c0-0.783,0.635-1.417,1.417-1.417h26.494c0.782,0,1.417,0.635,1.417,1.417V87.974z"/>
	<path fill="none" stroke="#C6C6C6" stroke-miterlimit="10" d="M129.555,54.105c0,0.781-0.635,1.416-1.417,1.416h-26.494
		c-0.782,0-1.417-0.635-1.417-1.416V27.612c0-0.783,0.635-1.417,1.417-1.417h26.494c0.782,0,1.417,0.635,1.417,1.417V54.105z"/>
	<path fill="none" stroke="#C6C6C6" stroke-miterlimit="10" d="M164.109,54.105c0,0.782-0.635,1.417-1.417,1.417h-26.494
		c-0.782,0-1.417-0.635-1.417-1.417V27.613c0-0.783,0.635-1.417,1.417-1.417h26.494c0.782,0,1.417,0.635,1.417,1.417V54.105z"/>
	<path fill="none" stroke="#C6C6C6" stroke-miterlimit="10" d="M198.666,54.105c0,0.782-0.635,1.417-1.417,1.417h-26.494
		c-0.782,0-1.417-0.635-1.417-1.417V27.613c0-0.783,0.635-1.417,1.417-1.417h26.494c0.782,0,1.417,0.635,1.417,1.417V54.105z"/>
	<path fill="none" stroke="#C6C6C6" stroke-miterlimit="10" d="M129.553,189.578c0,0.781-0.635,1.416-1.417,1.416h-26.494
		c-0.782,0-1.417-0.635-1.417-1.416v-26.493c0-0.782,0.635-1.417,1.417-1.417h26.494c0.782,0,1.417,0.635,1.417,1.417V189.578z"/>
	<path fill="none" stroke="#C6C6C6" stroke-miterlimit="10" d="M164.107,189.578c0,0.782-0.635,1.417-1.417,1.417h-26.494
		c-0.782,0-1.417-0.635-1.417-1.417v-26.492c0-0.783,0.635-1.418,1.417-1.418h26.494c0.782,0,1.417,0.635,1.417,1.418V189.578z"/>
	<path fill="none" stroke="#C6C6C6" stroke-miterlimit="10" d="M198.664,189.578c0,0.782-0.635,1.417-1.417,1.417h-26.494
		c-0.782,0-1.417-0.635-1.417-1.417v-26.492c0-0.783,0.635-1.418,1.417-1.418h26.494c0.782,0,1.417,0.635,1.417,1.418V189.578z"/>
	<path fill="none" stroke="#C6C6C6" stroke-miterlimit="10" d="M164.107,155.71c0,0.782-0.635,1.417-1.417,1.417h-26.494
		c-0.782,0-1.417-0.635-1.417-1.417v-26.492c0-0.783,0.635-1.418,1.417-1.418h26.494c0.782,0,1.417,0.635,1.417,1.418V155.71z"/>
	<path fill="none" stroke="#878787" stroke-miterlimit="10" d="M312.771,189.577c0,0.782-0.635,1.417-1.417,1.417H284.86
		c-0.782,0-1.417-0.635-1.417-1.417v-26.492c0-0.783,0.635-1.418,1.417-1.418h26.494c0.782,0,1.417,0.635,1.417,1.418V189.577z"/>
	<path fill="#FFFFFF" stroke="#E30613" stroke-miterlimit="10" d="M276.8,161.668c0.783,0,1.418,0.635,1.418,1.416v26.494
		c0,0.783-0.635,1.418-1.418,1.418H216.44c-0.783,0-1.418-0.635-1.418-1.418v-26.494c0-0.781,0.635-1.416,1.418-1.416H276.8z"/>
	<path fill="none" stroke="#C6C6C6" stroke-miterlimit="10" d="M53.333,190.994h29.249c0.783,0,1.417-0.635,1.417-1.417V27.612
		c0-0.783-0.635-1.417-1.417-1.417h-57.25"/>
	<path fill="none" stroke="#C6C6C6" stroke-miterlimit="10" d="M13.333,12.333h344.973c0.778,0,1.41,0.635,1.41,1.417V202.25
		c0,0.782-0.632,1.417-1.41,1.417H31.334"/>
</g>
<g id="Layer_2">
	<text transform="matrix(1 0 0 1 219.6797 111.8892)" fill="#BE1622" font-family="'LucidaGrande-Bold'" font-size="10">-5s</text>
	<text transform="matrix(1 0 0 1 288.0049 111.8892)" fill="#BE1622" font-family="'LucidaGrande-Bold'" font-size="10">+5s</text>
	<text transform="matrix(1 0 0 1 216.3809 78.8335)" fill="#BE1622" font-family="'LucidaGrande-Bold'" font-size="10">-10s</text>
	<text transform="matrix(1 0 0 1 284.707 78.834)" fill="#BE1622" font-family="'LucidaGrande-Bold'" font-size="10">+10s</text>
	<text transform="matrix(1 0 0 1 257.5234 146.4453)" fill="#1B5E8F" font-family="'LucidaGrande-Bold'" font-size="10">1x</text>
	<text transform="matrix(1 0 0 1 218.3164 146.4453)" fill="#1B5E8F" font-family="'LucidaGrande-Bold'" font-size="10">-.1x</text>
	<text transform="matrix(1 0 0 1 286.6426 146.4453)" fill="#1B5E8F" font-family="'LucidaGrande-Bold'" font-size="10">+.1x</text>
	<text transform="matrix(1 0 0 1 176.6914 147.4443)" fill="#1B5E8F" font-family="'LucidaGrande-Bold'" font-size="10">speed</text>
	<text transform="matrix(1 0 0 1 184.4551 112.8892)" fill="#BE1622" font-family="'LucidaGrande-Bold'" font-size="10">time</text>
	<polygon fill="#E30613" points="268.791,108.859 258.76,114.1 258.76,101.9 268.791,108.859 	"/>
	<polygon fill="#E30613" points="252.905,177.191 242.874,182.433 242.874,170.232 252.905,177.191 	"/>
	<g>
		<path fill="#CCAC00" d="M271.652,81.403c0,0,0.771-0.259,0.771-2.674c0-1.794-2.502-0.614-3.624-1.734
			c-1.078-1.079-1.627-2.967-1-4.124c0.896-1.651,1.887-0.838,1.887-2.62c0-2.197-3.287-2.004-3.287-2.004s-3.287-0.192-3.287,2.004
			c0,1.782,0.993,0.969,1.887,2.62c0.629,1.157,0.078,3.044-1,4.124c-1.12,1.12-3.624-0.061-3.624,1.734
			c0,2.416,0.771,2.674,0.771,2.674H271.652z"/>
		<path fill="#CCAC00" d="M271.197,82.428c0,0.212-0.172,0.385-0.385,0.385h-8.826c-0.211,0-0.385-0.172-0.385-0.385l0,0
			c0-0.213,0.174-0.386,0.385-0.386h8.826C271.025,82.042,271.197,82.215,271.197,82.428L271.197,82.428z"/>
		<path fill="none" stroke="#CCAC00" stroke-width="1.1339" stroke-linecap="round" stroke-miterlimit="10" d="M268.998,72.941
			c0,0.728-0.111,1.429-0.317,2.088"/>
		<path fill="none" stroke="#CCAC00" stroke-width="1.1339" stroke-miterlimit="10" d="M268.681,72.941"/>
		<path fill="none" stroke="#CCAC00" stroke-width="1.1339" stroke-miterlimit="10" d="M265.521,67.088"/>
		<path fill="none" stroke="#CCAC00" stroke-width="1.1339" stroke-linecap="round" stroke-miterlimit="10" d="M258.957,79.392
			c-2.513-1.062-4.276-3.55-4.276-6.45c0-3.866,3.134-7,7-7c1.418,0,2.738,0.422,3.841,1.147"/>
		<polyline fill="none" stroke="#CCAC00" stroke-width="1.4173" stroke-linecap="round" stroke-miterlimit="10" points="
			261.681,68.242 261.681,72.941 258.681,76.108 		"/>
	</g>
</g>
</svg>
